<svg width="16" height="16" viewBox="0 0 16 16" fill="none" xmlns="http://www.w3.org/2000/svg">
<path fill-rule="evenodd" clip-rule="evenodd" d="M8 11.5C8.27614 11.5 8.5 11.7239 8.5 12V13.5C8.5 13.7761 8.27614 14 8 14C7.72386 14 7.5 13.7761 7.5 13.5V12C7.5 11.7239 7.72386 11.5 8 11.5Z" fill="white"/>
<path d="M5.75 9.5C6.16421 9.5 6.5 9.16421 6.5 8.75C6.5 8.33579 6.16421 8 5.75 8C5.33579 8 5 8.33579 5 8.75C5 9.16421 5.33579 9.5 5.75 9.5Z" fill="white"/>
<path d="M10.25 9.5C10.6642 9.5 11 9.16421 11 8.75C11 8.33579 10.6642 8 10.25 8C9.83579 8 9.5 8.33579 9.5 8.75C9.5 9.16421 9.83579 9.5 10.25 9.5Z" fill="white"/>
<path fill-rule="evenodd" clip-rule="evenodd" d="M6.64645 10.6464C6.84171 10.4512 7.15829 10.4512 7.35355 10.6464L8 11.2929L8.64645 10.6464C8.84171 10.4512 9.15829 10.4512 9.35355 10.6464C9.54882 10.8417 9.54882 11.1583 9.35355 11.3536L8.35355 12.3536C8.15829 12.5488 7.84171 12.5488 7.64645 12.3536L6.64645 11.3536C6.45118 11.1583 6.45118 10.8417 6.64645 10.6464Z" fill="white"/>
<path fill-rule="evenodd" clip-rule="evenodd" d="M12.8661 1.6462C12.9974 1.61326 13.134 1.6073 13.2676 1.62869C13.4015 1.65012 13.5296 1.69855 13.6442 1.77104C13.7588 1.84353 13.8574 1.93856 13.9341 2.05036C14.0109 2.16216 14.064 2.28839 14.0904 2.42138L14.0915 2.42674L15.1168 7.90378C15.3036 8.9249 13.9952 9.52877 13.3448 8.70319L9.10683 3.30889C9.00207 3.17555 8.97204 2.9982 9.02704 2.8378C9.08205 2.6774 9.21461 2.55581 9.37915 2.51483L12.8654 1.64638C12.8657 1.64632 12.8659 1.64626 12.8661 1.6462ZM10.3703 3.29847L14.1303 8.08431C14.1302 8.08426 14.1303 8.08436 14.1303 8.08431C14.1305 8.08468 14.1309 8.08518 14.1312 8.08551C14.1314 8.08543 14.1316 8.08534 14.1318 8.08525C14.1323 8.08501 14.1328 8.08477 14.1333 8.08452C14.1333 8.08443 14.1333 8.08461 14.1333 8.08452C14.1333 8.08435 14.1332 8.0839 14.1332 8.08372L13.1095 2.61613L13.1084 2.61642L10.3703 3.29847Z" fill="white"/>
<path fill-rule="evenodd" clip-rule="evenodd" d="M3.13401 1.6462C3.13424 1.64626 3.13448 1.64632 3.13471 1.64638L6.621 2.51483C6.78554 2.55581 6.91809 2.6774 6.9731 2.8378C7.02811 2.9982 6.99807 3.17555 6.89331 3.30889L2.65538 8.70319C2.00492 9.52877 0.696509 8.9249 0.883299 7.90378L0.883672 7.90174L1.90968 2.42137C1.93608 2.28839 1.98929 2.16216 2.06599 2.05036C2.1427 1.93856 2.24134 1.84353 2.35592 1.77104C2.4705 1.69855 2.59863 1.65012 2.73251 1.62869C2.86615 1.6073 3.00274 1.61326 3.13401 1.6462ZM2.89059 2.61613L1.86698 8.08372C1.86694 8.08391 1.86691 8.08409 1.86688 8.08427C1.86686 8.08436 1.86689 8.08419 1.86688 8.08427C1.86735 8.08452 1.86781 8.08501 1.86834 8.08525C1.86854 8.08534 1.86874 8.08543 1.86893 8.08551C1.8692 8.08518 1.86948 8.08483 1.86977 8.08446C1.86973 8.08451 1.86981 8.08441 1.86977 8.08446L5.6298 3.29847L2.89059 2.61613Z" fill="white"/>
<path fill-rule="evenodd" clip-rule="evenodd" d="M6 3C6 2.72386 6.22386 2.5 6.5 2.5H9.5C9.77614 2.5 10 2.72386 10 3C10 3.27614 9.77614 3.5 9.5 3.5H6.5C6.22386 3.5 6 3.27614 6 3Z" fill="white"/>
<path fill-rule="evenodd" clip-rule="evenodd" d="M3 6.95625C3.27614 6.95625 3.5 7.18011 3.5 7.45625V11.5C3.5 11.8978 3.65804 12.2794 3.93934 12.5607C4.22064 12.842 4.60218 13 5 13H11C11.3978 13 11.7794 12.842 12.0607 12.5607C12.342 12.2794 12.5 11.8978 12.5 11.5V7.45625C12.5 7.18011 12.7239 6.95625 13 6.95625C13.2761 6.95625 13.5 7.18011 13.5 7.45625V11.5C13.5 12.163 13.2366 12.7989 12.7678 13.2678C12.2989 13.7366 11.663 14 11 14H5C4.33696 14 3.70107 13.7366 3.23223 13.2678C2.76339 12.7989 2.5 12.163 2.5 11.5V7.45625C2.5 7.18011 2.72386 6.95625 3 6.95625Z" fill="white"/>
</svg>
