<svg width="35" height="35" viewBox="0 0 35 35" fill="none" xmlns="http://www.w3.org/2000/svg">
<path d="M23.6104 2.9165H11.3896C6.08125 2.9165 2.91667 6.08109 2.91667 11.3894V23.5957C2.91667 28.9186 6.08125 32.0832 11.3896 32.0832H23.5958C28.9042 32.0832 32.0688 28.9186 32.0688 23.6103V11.3894C32.0833 6.08109 28.9188 2.9165 23.6104 2.9165ZM17.5 23.1582C14.3792 23.1582 11.8417 20.6207 11.8417 17.4998C11.8417 14.379 14.3792 11.8415 17.5 11.8415C20.6208 11.8415 23.1583 14.379 23.1583 17.4998C23.1583 20.6207 20.6208 23.1582 17.5 23.1582ZM26.1333 10.0332C26.0604 10.2082 25.9583 10.3686 25.8271 10.5144C25.6812 10.6457 25.5208 10.7478 25.3458 10.8207C25.0804 10.9333 24.7875 10.9644 24.5044 10.9098C24.2212 10.8553 23.9608 10.7176 23.7563 10.5144C23.625 10.3686 23.5229 10.2082 23.45 10.0332C23.3751 9.8579 23.3354 9.6696 23.3333 9.479C23.3333 9.28942 23.3771 9.09984 23.45 8.92484C23.5229 8.73525 23.625 8.58942 23.7563 8.44359C24.0917 8.10817 24.6021 7.94775 25.0688 8.04984C25.1708 8.06442 25.2583 8.09359 25.3458 8.13734C25.4333 8.1665 25.5208 8.21025 25.6083 8.26859C25.6813 8.31234 25.7542 8.38525 25.8271 8.44359C25.9583 8.58942 26.0604 8.73525 26.1333 8.92484C26.2062 9.09984 26.25 9.28942 26.25 9.479C26.25 9.66859 26.2062 9.85817 26.1333 10.0332Z" fill="white"/>
</svg>
