<svg width="108" height="108" viewBox="0 0 108 108" fill="none" xmlns="http://www.w3.org/2000/svg">
<g clip-path="url(#clip0_3_48)">
<rect width="108" height="108" rx="52" fill="#FEBA2F"/>
<path d="M42.48 67.9623V68.1174C42.4373 71.3999 39.6773 73.8682 34.2 75.5223C40.7999 80.3221 47.4001 84.1623 54 84.1623C60.5999 84.1623 67.2001 80.3221 73.8 75.5223C68.3599 73.8663 65.5999 71.3943 65.52 68.1063C65.52 67.5202 65.5243 66.6879 65.5283 65.1251C65.5283 64.8769 65.5289 64.6228 65.5301 64.3626C65.9236 64.4181 65.8901 64.3828 65.5301 64.2827C65.5409 60.1719 65.5585 54.6441 65.583 49.0263C70.7425 42.3385 68.8471 34.4981 67.2304 34.6936C65.2486 34.9351 48.0755 18.6387 44.7815 17.8031C41.4875 16.9675 33.12 19.665 31.68 27.18C30.24 34.695 29.6381 53.6375 35.1 61.2C36.6542 63.3521 39.1022 64.1939 42.444 63.7254C42.4487 65.2983 42.458 66.181 42.48 67.9623Z" fill="#C17154"/>
<path d="M42.48 63.72C50.4 62.82 55.44 59.4 55.44 59.4C55.44 59.4 49.9896 66.6421 42.48 68.04V63.72Z" fill="#9F553B"/>
<path d="M68.22 49.14C70.7004 43.1748 80.64 31.0259 72.072 23.4659C69.192 9.42589 53.28 10.98 42.66 14.22C35.5223 16.3977 30.132 20.7 28.98 17.46C21.78 23.4659 25.3858 29.34 30.132 31.0259C34.4398 32.5559 41.724 34.0859 54.1102 32.6459C56.3227 32.3885 55.8594 39.1648 57.0417 39.8974C58.8154 40.9965 60.192 34.0859 65.0549 36.1609C69.9178 38.236 67.032 47.8573 61.812 47.8573C60.012 47.8573 59.112 52.8063 63.972 55.1463C67.5 56.88 66.6083 53.0161 68.22 49.14Z" fill="#40251D"/>
<path d="M91.8 86.5109C95.2272 93.4794 97.2 109.551 97.2 109.551H10.8C10.8 109.551 12.7735 93.4776 16.2 86.5109C19.6265 79.5442 39.636 73.0826 39.636 73.0826C43.4927 81 64.6589 81 68.3536 73.08C68.3536 73.08 88.3728 79.5424 91.8 86.5109Z" fill="#FD706B"/>
<mask id="mask0_3_48" style="mask-type:alpha" maskUnits="userSpaceOnUse" x="10" y="73" width="88" height="37">
<path d="M91.8 86.5109C95.2272 93.4794 97.2 109.551 97.2 109.551H10.8C10.8 109.551 12.7735 93.4776 16.2 86.5109C19.6265 79.5442 39.636 73.0826 39.636 73.0826C43.4927 81 64.6589 81 68.3536 73.08C68.3536 73.08 88.3728 79.5424 91.8 86.5109Z" fill="url(#paint0_linear_3_48)"/>
</mask>
<g mask="url(#mask0_3_48)">
<path d="M7.19999 102.24V99.3601H100.8V102.24H7.19999ZM7.19999 95.0401V92.1601H100.8V95.0401H7.19999ZM7.19999 87.8401V84.9601H100.8V87.8401H7.19999Z" fill="#DD5752"/>
</g>
</g>
<defs>
<linearGradient id="paint0_linear_3_48" x1="54" y1="109.551" x2="54" y2="73.08" gradientUnits="userSpaceOnUse">
<stop stop-color="#E6864E"/>
<stop offset="1" stop-color="#E67240"/>
</linearGradient>
<clipPath id="clip0_3_48">
<rect width="108" height="108" rx="52" fill="white"/>
</clipPath>
</defs>
</svg>
