<svg width="28" height="27" viewBox="0 0 28 27" fill="none" xmlns="http://www.w3.org/2000/svg">
<rect x="3.05176e-05" width="28" height="27" rx="3.61111" fill="#AA59E7"/>
<path d="M9.8973 6C8.69934 6 7.63207 6.50991 6.82616 7.30804C6.04204 8.10616 5.54108 9.19249 5.54108 10.434C5.54108 11.6534 6.04204 12.7397 6.82616 13.56L14.2535 21.12L21.6809 13.56C22.465 12.7619 22.966 11.6755 22.966 10.434C22.966 9.21466 22.465 8.12833 21.6809 7.30804C20.8968 6.50991 19.8295 6 18.6098 6C17.4118 6 16.3445 6.50991 15.5386 7.30804C14.7545 8.10616 14.2535 9.19249 14.2535 10.434C14.2535 9.21466 13.7526 8.12833 12.9684 7.30804C12.1843 6.50991 11.117 6 9.8973 6Z" fill="#F9F4FD"/>
</svg>
