<svg width="24" height="22" viewBox="0 0 24 22" fill="none" xmlns="http://www.w3.org/2000/svg">
<path id="Vector" d="M21.0447 12.7618L22.8988 4.60381C23.0327 4.01478 22.585 3.45388 21.9809 3.45388H6.57557L6.21606 1.69638C6.12648 1.25832 5.74102 0.943726 5.29386 0.943726H1.27255C0.75267 0.943726 0.331238 1.36516 0.331238 1.88503V2.51257C0.331238 3.03245 0.75267 3.45388 1.27255 3.45388H4.01344L6.76865 16.9238C6.1095 17.3029 5.66532 18.0137 5.66532 18.8286C5.66532 20.0416 6.64867 21.025 7.86171 21.025C9.07474 21.025 10.0581 20.0416 10.0581 18.8286C10.0581 18.2138 9.80524 17.6584 9.39824 17.2597H17.6208C17.2139 17.6584 16.961 18.2138 16.961 18.8286C16.961 20.0416 17.9444 21.025 19.1574 21.025C20.3704 21.025 21.3538 20.0416 21.3538 18.8286C21.3538 17.959 20.8483 17.2075 20.1152 16.8516L20.3316 15.8995C20.4655 15.3105 20.0178 14.7496 19.4137 14.7496H8.88605L8.62935 13.4945H20.1268C20.5664 13.4945 20.9474 13.1904 21.0447 12.7618Z" stroke="white" stroke-width="0.627539"/>
</svg>
