<svg width="121" height="20" viewBox="0 0 121 20" fill="none" xmlns="http://www.w3.org/2000/svg">
<g id="Star Rating">
<path id="Star" d="M110.976 1.30426L108.686 6.80181L108.618 6.96518L108.441 6.97921L102.504 7.45147L107.025 11.3288L107.159 11.444L107.118 11.6161L105.733 17.4083L110.817 14.3071L110.968 14.2149L111.119 14.3073L116.2 17.4148L114.821 11.6209L114.781 11.4487L114.915 11.3336L119.44 7.46196L113.504 6.98235L113.328 6.96809L113.26 6.80464L110.976 1.30426Z" fill="url(#paint0_linear_5_32)" stroke="url(#paint1_linear_5_32)" stroke-width="0.579505"/>
<path id="Star_2" d="M85.8811 1.30424L83.5906 6.80179L83.5225 6.96515L83.3461 6.97919L77.4092 7.45144L81.9299 11.3287L82.0642 11.4439L82.023 11.6161L80.6376 17.4083L85.722 14.3071L85.8731 14.2149L86.0241 14.3073L91.1047 17.4148L89.7265 11.6208L89.6855 11.4487L89.82 11.3336L94.3454 7.46193L88.4091 6.98232L88.2327 6.96807L88.1649 6.80462L85.8811 1.30424Z" fill="#F1C644" stroke="#F1C644" stroke-width="0.579505"/>
<path id="Star_3" d="M60.7774 1.30424L58.4868 6.80179L58.4188 6.96515L58.2423 6.97919L52.3054 7.45144L56.8261 11.3287L56.9604 11.4439L56.9193 11.6161L55.5338 17.4083L60.6183 14.3071L60.7694 14.2149L60.9204 14.3073L66.001 17.4148L64.6227 11.6208L64.5818 11.4487L64.7162 11.3336L69.2417 7.46193L63.3054 6.98232L63.129 6.96807L63.0611 6.80462L60.7774 1.30424Z" fill="#F1C644" stroke="#F1C644" stroke-width="0.579505"/>
<path id="Star_4" d="M35.6736 1.30424L33.3831 6.80179L33.315 6.96515L33.1386 6.97919L27.2017 7.45144L31.7224 11.3287L31.8567 11.4439L31.8155 11.6161L30.4301 17.4083L35.5145 14.3071L35.6656 14.2149L35.8166 14.3073L40.8972 17.4148L39.519 11.6208L39.478 11.4487L39.6125 11.3336L44.1379 7.46193L38.2016 6.98232L38.0252 6.96807L37.9574 6.80462L35.6736 1.30424Z" fill="#F1C644" stroke="#F1C644" stroke-width="0.579505"/>
<path id="Star_5" d="M10.5699 1.30424L8.27935 6.80179L8.21129 6.96515L8.03486 6.97919L2.09797 7.45144L6.61863 11.3287L6.75297 11.4439L6.7118 11.6161L5.32634 17.4083L10.4108 14.3071L10.5619 14.2149L10.7129 14.3073L15.7935 17.4148L14.4152 11.6208L14.3743 11.4487L14.5088 11.3336L19.0342 7.46193L13.0979 6.98232L12.9215 6.96807L12.8536 6.80462L10.5699 1.30424Z" fill="#F1C644" stroke="#F1C644" stroke-width="0.579505"/>
</g>
<defs>
<linearGradient id="paint0_linear_5_32" x1="107.248" y1="10.9563" x2="118.404" y2="10.9563" gradientUnits="userSpaceOnUse">
<stop stop-color="#F1C644"/>
<stop offset="0.364583" stop-color="#F7CA0D"/>
<stop offset="1" stop-color="white"/>
</linearGradient>
<linearGradient id="paint1_linear_5_32" x1="112.082" y1="11.3281" x2="120.263" y2="11.3281" gradientUnits="userSpaceOnUse">
<stop stop-color="#F1C644"/>
<stop offset="1" stop-color="white" stop-opacity="0"/>
</linearGradient>
</defs>
</svg>
