<svg width="40" height="40" viewBox="0 0 40 40" fill="none" xmlns="http://www.w3.org/2000/svg">
<g clip-path="url(#clip0_1_39)">
<rect width="40" height="40" rx="19.2593" fill="#FEBA2F"/>
<path d="M15.7333 25.1712V25.2287C15.7175 26.4444 14.6953 27.3586 12.6667 27.9712C15.1111 29.7489 17.5556 31.1712 20 31.1712C22.4444 31.1712 24.8889 29.7489 27.3333 27.9712C25.3185 27.3579 24.2963 26.4423 24.2667 25.2245C24.2667 25.0075 24.2683 24.6992 24.2697 24.1204C24.2697 24.0285 24.27 23.9344 24.2704 23.838C24.4161 23.8585 24.4037 23.8455 24.2704 23.8084C24.2744 22.2859 24.2809 20.2385 24.29 18.1579C26.2009 15.6809 25.4989 12.7771 24.9001 12.8495C24.1661 12.9389 17.8057 6.90321 16.5857 6.59374C15.3657 6.28427 12.2667 7.28334 11.7333 10.0667C11.2 12.85 10.9771 19.8657 13 22.6667C13.5757 23.4637 14.4823 23.7755 15.72 23.602C15.7217 24.1845 15.7252 24.5115 15.7333 25.1712Z" fill="#C17154"/>
<path d="M15.7333 23.6C18.6667 23.2667 20.5333 22 20.5333 22C20.5333 22 18.5147 24.6823 15.7333 25.2V23.6Z" fill="#9F553B"/>
<path d="M25.2667 18.2C26.1854 15.9907 29.8667 11.4911 26.6934 8.69107C25.6267 3.49107 19.7334 4.06667 15.8 5.26667C13.1564 6.07321 11.16 7.66667 10.7333 6.46667C8.06668 8.69107 9.40215 10.8667 11.16 11.4911C12.7555 12.0577 15.4534 12.6244 20.0408 12.0911C20.8603 11.9957 20.6887 14.5055 21.1266 14.7768C21.7835 15.1839 22.2934 12.6244 24.0944 13.3929C25.8955 14.1615 24.8267 17.7249 22.8934 17.7249C22.2267 17.7249 21.8934 19.5579 23.6934 20.4245C25 21.0667 24.6698 19.6356 25.2667 18.2Z" fill="#40251D"/>
<path d="M34 32.0411C35.2693 34.622 36 40.5744 36 40.5744H4C4 40.5744 4.73093 34.6213 6 32.0411C7.26907 29.4608 14.68 27.0676 14.68 27.0676C16.1084 30 23.9477 30 25.3161 27.0667C25.3161 27.0667 32.7307 29.4601 34 32.0411Z" fill="#FD706B"/>
<mask id="mask0_1_39" style="mask-type:alpha" maskUnits="userSpaceOnUse" x="4" y="27" width="32" height="14">
<path d="M34 32.0411C35.2693 34.622 36 40.5744 36 40.5744H4C4 40.5744 4.73093 34.6213 6 32.0411C7.26907 29.4608 14.68 27.0676 14.68 27.0676C16.1084 30 23.9477 30 25.3161 27.0667C25.3161 27.0667 32.7307 29.4601 34 32.0411Z" fill="url(#paint0_linear_1_39)"/>
</mask>
<g mask="url(#mask0_1_39)">
<path d="M2.66669 37.8667V36.8H37.3334V37.8667H2.66669ZM2.66669 35.2V34.1334H37.3334V35.2H2.66669ZM2.66669 32.5334V31.4667H37.3334V32.5334H2.66669Z" fill="#DD5752"/>
</g>
</g>
<defs>
<linearGradient id="paint0_linear_1_39" x1="20" y1="40.5744" x2="20" y2="27.0667" gradientUnits="userSpaceOnUse">
<stop stop-color="#E6864E"/>
<stop offset="1" stop-color="#E67240"/>
</linearGradient>
<clipPath id="clip0_1_39">
<rect width="40" height="40" rx="19.2593" fill="white"/>
</clipPath>
</defs>
</svg>
