<svg width="50" height="50" viewBox="0 0 50 50" fill="none" xmlns="http://www.w3.org/2000/svg">
<path d="M19.9589 7.30211C20.0933 7.16745 20.2892 7.11468 20.473 7.16368L37.8063 11.7854C37.9901 11.8344 38.1338 11.9777 38.1832 12.1614L42.8474 29.4832C42.8968 29.6669 42.8445 29.863 42.7102 29.9977L30.0411 42.6979L31.1719 43.826L30.0411 42.6979C29.9067 42.8326 29.7108 42.8853 29.527 42.8363L12.1937 38.2147C12.0099 38.1656 11.8662 38.0223 11.8168 37.8386L7.15264 20.5168C7.10318 20.3331 7.15547 20.137 7.28981 20.0023L19.9589 7.30211Z" stroke="url(#paint0_linear_1_91)" stroke-width="3.19457"/>
<path d="M20.5222 12.6767C20.8828 12.3153 21.4088 12.1736 21.9022 12.3052L33.5336 15.4065C34.027 15.5381 34.4127 15.9228 34.5454 16.4158L37.6753 28.0397C37.808 28.5327 37.6677 29.0591 37.3071 29.4206L28.8055 37.943C28.4449 38.3045 27.9189 38.4461 27.4255 38.3146L15.794 35.2132C15.3007 35.0817 14.915 34.6969 14.7822 34.2039L11.6524 22.5801C11.5196 22.0871 11.66 21.5607 12.0206 21.1992L20.5222 12.6767Z" fill="url(#paint1_linear_1_91)"/>
<circle cx="38.3113" cy="10.7872" r="6.63401" fill="#8E54E9" stroke="white" stroke-width="2"/>
<circle cx="10.1412" cy="38.9573" r="6.63401" fill="#4776E6" stroke="white" stroke-width="2"/>
<defs>
<linearGradient id="paint0_linear_1_91" x1="10.7989" y1="40.1961" x2="40.1961" y2="10.199" gradientUnits="userSpaceOnUse">
<stop stop-color="#4776E6"/>
<stop offset="1" stop-color="#8E54E9"/>
</linearGradient>
<linearGradient id="paint1_linear_1_91" x1="16.3386" y1="35.0135" x2="33.2407" y2="16.4213" gradientUnits="userSpaceOnUse">
<stop stop-color="#4776E6"/>
<stop offset="1" stop-color="#8E54E9"/>
</linearGradient>
</defs>
</svg>
