<svg width="50" height="50" viewBox="0 0 51 30" fill="none" xmlns="http://www.w3.org/2000/svg">
<path d="M50.4184 28.2558C48.5996 28.7183 47.4746 28.2761 46.4653 26.7605L39.2871 16.8292L38.2496 15.4542L29.8668 26.7933C28.909 28.1573 27.9043 28.7511 26.1168 28.2683L36.8512 13.8589L26.8575 0.843289C28.5762 0.508914 29.7637 0.679226 30.8184 2.21829L38.2637 12.273L45.7637 2.27298C46.7246 0.908914 47.7575 0.390164 49.4825 0.893289L45.6075 6.03079L40.3575 12.8667C39.7325 13.648 39.8184 14.1824 40.3934 14.937L50.4184 28.2558ZM0.430896 13.6183L1.30902 9.29954C3.69965 0.752664 13.4965 -2.7989 20.2528 2.48235C24.2012 5.5886 25.1825 9.98235 24.9871 14.9042H2.7309C2.39652 23.7636 8.77308 29.1105 16.9028 26.3824C19.7543 25.4245 21.434 23.1917 22.2746 20.398C22.7012 18.998 23.4075 18.7792 24.7231 19.1792C24.0512 22.673 22.5356 25.5917 19.3325 27.4183C14.5465 30.1527 7.71527 29.2683 4.12152 25.4683C1.9809 23.2636 1.09652 20.4699 0.699646 17.4824C0.637146 16.9886 0.512146 16.5183 0.418396 16.0449C0.426729 15.2365 0.430896 14.4282 0.430896 13.6199V13.6183ZM2.77152 13.0245H22.884C22.7528 6.61829 18.7637 2.06829 13.3121 2.02923C7.32777 1.98235 3.0309 6.42454 2.77152 13.0245Z" fill="white"/>
</svg>
