<svg width="50" height="50" viewBox="0 0 23 51" fill="none" xmlns="http://www.w3.org/2000/svg">
<path d="M22.0041 20.4018C19.3729 8.81849 13.1666 5.01225 12.4999 3.556C11.7666 2.52891 10.9729 0.572662 10.9729 0.572662C10.9687 0.612246 10.9645 0.637246 10.9624 0.674746V0.701829H10.9604C10.9562 0.733079 10.9541 0.753912 10.952 0.783079V0.814329H10.9479C10.9479 0.835162 10.9437 0.851829 10.9437 0.868496V0.922662H10.9374C10.9354 0.939329 10.9354 0.960162 10.9312 0.974746V1.0185H10.927C10.927 1.03308 10.927 1.04975 10.9229 1.06225V1.10391H10.9187C10.9187 1.12475 10.9166 1.14975 10.9145 1.17058V1.17475C10.9083 1.21016 10.902 1.24558 10.8958 1.27891V1.29558H10.8916C10.8895 1.30391 10.8854 1.31225 10.8854 1.32058V1.356H10.8791V1.40183H10.8687V1.43933H10.8583V1.48308H10.8499V1.52266H10.8416V1.55808H10.8291V1.58725H10.8208V1.62475H10.8124V1.65391H10.802V1.681H10.7958V1.71225H10.7874C10.7854 1.71433 10.7854 1.7185 10.7854 1.72058V1.74141H10.7791C10.777 1.74558 10.777 1.74975 10.777 1.75391V1.76641H10.7729C10.7708 1.77266 10.7687 1.78308 10.7687 1.78725C10.7624 1.80183 10.7541 1.81641 10.7479 1.831V1.83516C10.7437 1.83933 10.7395 1.84558 10.7374 1.84975V1.86641H10.7291V1.88308H10.7187V1.89975H10.7124V1.92058H10.6999V1.94975H10.6916V1.95808H10.6833V1.97475H10.6749V1.99766H10.6666V2.01433H10.6541V2.03725H10.6458V2.05391H10.6354V2.07058H10.6291V2.09141H10.6187V2.10808H10.6104V2.12058H10.602V2.13725H10.5895V2.156H10.5812V2.1685H10.5708V2.18516H10.5624V2.20808H10.552V2.21641H10.5458V2.23308H10.5333V2.24141H10.5249V2.26225H10.5166V2.27058H10.5083V2.28725H10.4979V2.29975H10.4916L10.4874 2.30808V2.31641H10.4833C10.4812 2.32058 10.4791 2.32058 10.4791 2.32475L10.477 2.32683C10.4749 2.33308 10.4729 2.33725 10.4687 2.34141V2.34766C10.4583 2.36016 10.4499 2.37266 10.4416 2.38516C10.4374 2.38933 10.427 2.39975 10.4229 2.40808V2.41225H10.4208C10.4187 2.41433 10.4145 2.41641 10.4145 2.4185V2.42475H10.4104L10.4041 2.431L10.402 2.43308C10.402 2.43516 10.3979 2.43725 10.3958 2.44141V2.44975H10.3895L10.3854 2.45391V2.45808H10.3812C10.3812 2.46225 10.377 2.46225 10.377 2.46433V2.47058H10.3687C10.3687 2.47266 10.3666 2.47475 10.3645 2.47683V2.48933H10.3583V2.49766H10.3499V2.51016H10.3416V2.52683H10.3312V2.51016H10.3208V2.5185H10.3124V2.531H10.302V2.54766H10.2916V2.556H10.2833V2.5685H10.2749V2.57683H10.2666V2.5935H10.2541V2.60183H10.2458V2.61433H10.2354V2.62266H10.227V2.63308H10.2166V2.65391H10.2124V2.66225H10.1999V2.67266H10.1916V2.67683H10.1833V2.68516H10.1729V2.706H10.1645V2.71433H10.1541V2.72266H10.1458V2.73516H10.1354V2.7435H10.1249V2.75183H10.1166V2.76016H10.1083V2.781H10.0999V2.79141H10.0874V2.79975H10.0791V2.80808H10.0687V2.82058H10.0604V2.82891H10.0499V2.8435H10.0416V2.85183H10.0291V2.86433H10.0249V2.87266H10.0166V2.881H10.0062V2.88933H9.99786V2.90183H9.98744V2.91016H9.98119C9.97911 2.91225 9.97911 2.91433 9.97911 2.91433V2.9185H9.97494L9.96661 2.92683C9.96661 2.92683 9.96244 2.931 9.95827 2.93308V2.94558H9.94994V2.956H9.94161V2.96433H9.93327V2.97266H9.92702L9.92077 2.97891V2.98516H9.91661L9.91244 2.98933V2.99558H9.90827C9.89786 3.00808 9.89369 3.01641 9.87911 3.02891C9.87494 3.03308 9.86244 3.0435 9.85411 3.04975C9.82911 3.06641 9.79786 3.0935 9.77286 3.11641C9.75619 3.12683 9.73952 3.14141 9.72702 3.15183L9.72494 3.15391C9.69161 3.181 9.66036 3.206 9.62286 3.23516V3.23725C9.57286 3.27891 9.52494 3.3185 9.46869 3.36641L9.46453 3.36433C9.34577 3.46225 9.22077 3.57266 9.07703 3.69558V3.69766H9.07494C8.72286 4.006 8.30411 4.40183 7.83536 4.881L7.80411 4.91225L7.79577 4.92058C4.96244 7.85183 0.497858 13.9602 0.0270249 23.831C-0.0146418 24.6477 -0.00630836 25.4414 0.039525 26.2143V26.2331C0.266608 30.1227 1.48744 33.4435 3.01452 36.1414C3.62286 37.2164 4.27911 38.1956 4.94369 39.0706C7.23952 42.1018 9.58327 43.8997 10.1812 44.3352C11.0999 46.4664 11.0145 50.1247 11.0145 50.1247L12.3562 50.5727C12.3562 50.5727 12.0833 47.0289 12.4666 45.3185C12.5854 44.7831 12.8666 44.3268 13.1937 43.9393C13.4145 43.7831 14.0687 43.3122 14.8541 42.5956C14.8916 42.556 14.9124 42.5206 14.9458 42.4831C18.1145 39.5289 24.0333 32.2539 22.0041 20.4018Z" fill="#47A248"/>
</svg>
