<svg width="50" height="50" viewBox="0 0 46 50" fill="none" xmlns="http://www.w3.org/2000/svg">
<path d="M20.9682 0.531118C22.2026 -0.175443 23.8104 -0.178634 25.0437 0.531118C31.2485 4.03715 37.4553 7.53768 43.659 11.0458C44.8258 11.7031 45.6063 13.0017 45.5944 14.3462V35.4398C45.6031 36.84 44.7455 38.1696 43.5145 38.812C37.3301 42.2987 31.1489 45.7896 24.9655 49.2763C23.7056 49.9967 22.0655 49.9412 20.845 49.1618C18.9909 48.087 17.1336 47.0175 15.2794 45.9437C14.9005 45.7178 14.4733 45.538 14.2058 45.1707C14.4423 44.8519 14.8652 44.8121 15.2088 44.673C15.9827 44.4269 16.6935 44.0318 17.4045 43.6485C17.5843 43.5254 17.8038 43.5726 17.9762 43.6827C19.5616 44.5918 21.1331 45.5272 22.7239 46.4276C23.0632 46.6235 23.4068 46.3634 23.6969 46.2017C29.7657 42.7717 35.842 39.3547 41.9097 35.9237C42.1345 35.8155 42.2588 35.5769 42.2405 35.3306C42.2448 28.3723 42.2416 21.4127 42.2427 14.4543C42.2684 14.1749 42.1067 13.918 41.854 13.8036C35.6911 10.3329 29.5313 6.85683 23.3694 3.3852C23.2627 3.3118 23.1362 3.27242 23.0067 3.27223C22.8771 3.27204 22.7505 3.31105 22.6435 3.38413C16.4817 6.85683 10.323 10.3361 4.1611 13.8067C3.90933 13.9212 3.74036 14.1738 3.77032 14.4543C3.77139 21.4127 3.77032 28.3723 3.77032 35.3316C3.75964 35.4518 3.78603 35.5724 3.84594 35.6771C3.90586 35.7818 3.99642 35.8656 4.10543 35.9173C5.74975 36.8497 7.39621 37.7756 9.0416 38.7049C9.96855 39.2038 11.1067 39.5003 12.1279 39.118C13.0292 38.7948 13.6609 37.8751 13.6437 36.9182C13.6522 30.0004 13.6395 23.0816 13.6501 16.165C13.6276 15.8579 13.9189 15.6042 14.2175 15.6331C15.0076 15.6277 15.7987 15.6224 16.5888 15.6352C16.9185 15.6277 17.1455 15.9584 17.1047 16.2678C17.1015 23.2293 17.1132 30.191 17.0994 37.1526C17.1015 39.0079 16.3393 41.0267 14.6232 41.9345C12.509 43.0297 9.89585 42.7974 7.8072 41.7473C5.99905 40.8448 4.27351 39.7797 2.49745 38.8129C1.26323 38.174 0.409861 36.8391 0.418549 35.44V14.3462C0.405605 12.9738 1.21713 11.6517 2.42032 11.004C8.60365 7.51445 14.7859 4.02225 20.9682 0.531118Z" fill="#8CC84B"/>
<path d="M26.3625 15.1428C29.0593 14.9692 31.9464 15.04 34.3732 16.3685C36.2521 17.3866 37.2937 19.5233 37.3269 21.6107C37.2744 21.8923 36.9801 22.0476 36.7113 22.0283C35.9288 22.0272 35.1462 22.0389 34.3638 22.023C34.0318 22.0357 33.8389 21.7297 33.7973 21.4363C33.5724 20.4375 33.0278 19.4483 32.0877 18.9666C30.6446 18.2441 28.9714 18.2804 27.3978 18.2955C26.249 18.3565 25.0138 18.4559 24.0405 19.1315C23.2934 19.6432 23.0664 20.6762 23.3331 21.5081C23.5845 22.1054 24.274 22.2981 24.8382 22.4758C28.0882 23.3258 31.5322 23.2412 34.7201 24.3598C36.04 24.8159 37.3311 25.7024 37.7829 27.0843C38.3739 28.9364 38.1148 31.1503 36.7971 32.6371C35.7285 33.8607 34.1721 34.5267 32.6198 34.8884C30.5547 35.3489 28.4116 35.3606 26.3145 35.1561C24.3425 34.9313 22.2904 34.4132 20.768 33.0696C19.4662 31.9393 18.8304 30.1781 18.8935 28.4783C18.9086 28.1912 19.1944 27.991 19.4694 28.0146C20.2574 28.0082 21.0453 28.0061 21.8333 28.0157C22.148 27.9932 22.3813 28.2652 22.3974 28.5618C22.5428 29.5134 22.9005 30.5121 23.7302 31.0763C25.3317 32.1095 27.3411 32.0387 29.1748 32.0676C30.6939 32.0003 32.3992 31.9799 33.6389 30.9758C34.293 30.4031 34.4868 29.445 34.31 28.6207C34.1185 27.9247 33.3905 27.6004 32.7654 27.3884C29.557 26.3735 26.0746 26.7418 22.8973 25.5941C21.6074 25.1382 20.36 24.2763 19.8645 22.9512C19.173 21.0756 19.4898 18.7558 20.9457 17.3191C22.3652 15.89 24.4143 15.3398 26.3625 15.1428Z" fill="#8CC84B"/>
</svg>
