<svg width="50" height="50" viewBox="0 0 51 45" fill="none" xmlns="http://www.w3.org/2000/svg">
<path d="M50.4184 22.2687C50.4184 18.9564 46.2704 15.8174 39.9109 13.8708C41.3784 7.38891 40.7262 2.23196 37.8521 0.580921C37.1897 0.19364 36.4151 0.0101914 35.5692 0.0101914V2.28292C36.038 2.28292 36.4151 2.37464 36.7311 2.5479C38.1171 3.34285 38.7184 6.36975 38.2496 10.2629C38.1375 11.221 37.9541 12.2299 37.7299 13.2593C35.7323 12.7701 33.5513 12.393 31.2582 12.1484C29.8823 10.2629 28.4555 8.55075 27.0185 7.05259C30.3409 3.96453 33.4596 2.27273 35.5794 2.27273V0C32.7767 0 29.1078 1.99755 25.398 5.4627C21.6883 2.01794 18.0193 0.0407666 15.2166 0.0407666V2.31349C17.3263 2.31349 20.4551 3.99511 23.7775 7.06278C22.3507 8.56095 20.9239 10.2629 19.5684 12.1484C17.2651 12.393 15.0841 12.7701 13.0866 13.2695C12.8522 12.2503 12.6789 11.2617 12.5566 10.3139C12.0776 6.42071 12.6687 3.3938 14.0446 2.58867C14.3503 2.40522 14.7478 2.32369 15.2166 2.32369V0.050958C14.3605 0.050958 13.5859 0.234407 12.9133 0.621688C10.0495 2.27273 9.40739 7.41949 10.8852 13.881C4.54599 15.8377 0.418396 18.9666 0.418396 22.2687C0.418396 25.5809 4.56638 28.7199 10.9259 30.6665C9.45835 37.1484 10.1106 42.3053 12.9846 43.9564C13.6471 44.3437 14.4217 44.5271 15.2778 44.5271C18.0804 44.5271 21.7494 42.5296 25.4592 39.0644C29.1689 42.5092 32.8379 44.4863 35.6406 44.4863C36.4967 44.4863 37.2712 44.3029 37.9439 43.9156C40.8077 42.2646 41.4498 37.1178 39.972 30.6563C46.2908 28.7097 50.4184 25.5707 50.4184 22.2687ZM37.1489 15.4709C36.7718 16.7856 36.303 18.1411 35.7731 19.4965C35.3552 18.6812 34.917 17.8659 34.438 17.0506C33.9692 16.2352 33.4698 15.4403 32.9704 14.6657C34.4176 14.8797 35.8138 15.1447 37.1489 15.4709ZM32.4812 26.3249C31.6862 27.7008 30.8709 29.0053 30.025 30.2181C28.5065 30.3506 26.9675 30.4219 25.4184 30.4219C23.8795 30.4219 22.3405 30.3506 20.8322 30.2283C19.9863 29.0155 19.1608 27.7212 18.3658 26.3555C17.5912 25.0204 16.888 23.6649 16.246 22.2992C16.8778 20.9335 17.5912 19.5679 18.3556 18.2328C19.1506 16.8569 19.9659 15.5524 20.8118 14.3396C22.3303 14.2071 23.8693 14.1358 25.4184 14.1358C26.9573 14.1358 28.4963 14.2071 30.0046 14.3294C30.8505 15.5422 31.676 16.8365 32.471 18.2022C33.2455 19.5373 33.9488 20.8928 34.5908 22.2585C33.9488 23.6241 33.2455 24.9898 32.4812 26.3249ZM35.7731 25C36.3234 26.3657 36.7922 27.7313 37.1795 29.0563C35.8444 29.3824 34.438 29.6576 32.9806 29.8716C33.48 29.0868 33.9793 28.2817 34.4482 27.4562C34.917 26.6408 35.3552 25.8153 35.7731 25ZM25.4388 35.8744C24.491 34.896 23.5431 33.8055 22.6055 32.6131C23.5228 32.6539 24.4604 32.6845 25.4082 32.6845C26.3662 32.6845 27.314 32.6641 28.2415 32.6131C27.3242 33.8055 26.3764 34.896 25.4388 35.8744ZM17.8562 29.8716C16.409 29.6576 15.0128 29.3926 13.6777 29.0664C14.0548 27.7517 14.5236 26.3962 15.0535 25.0408C15.4714 25.8561 15.9096 26.6714 16.3886 27.4867C16.8676 28.3021 17.3568 29.097 17.8562 29.8716ZM25.3878 8.66286C26.3356 9.64126 27.2835 10.7318 28.2211 11.9242C27.3038 11.8834 26.3662 11.8528 25.4184 11.8528C24.4604 11.8528 23.5126 11.8732 22.5851 11.9242C23.5024 10.7318 24.4502 9.64126 25.3878 8.66286ZM17.846 14.6657C17.3466 15.4505 16.8473 16.2556 16.3784 17.0811C15.9096 17.8965 15.4714 18.7118 15.0535 19.5271C14.5032 18.1614 14.0344 16.7958 13.6471 15.4709C14.9822 15.1549 16.3886 14.8797 17.846 14.6657ZM8.62264 27.4256C5.01481 25.8867 2.68093 23.8687 2.68093 22.2687C2.68093 20.6686 5.01481 18.6404 8.62264 17.1117C9.49911 16.7346 10.4571 16.3983 11.4457 16.0823C12.0266 18.0799 12.791 20.159 13.7388 22.289C12.8012 24.4089 12.047 26.4778 11.4763 28.4651C10.4673 28.1492 9.50931 27.8027 8.62264 27.4256ZM14.1057 41.9894C12.7197 41.1945 12.1184 38.1675 12.5872 34.2744C12.6993 33.3163 12.8827 32.3074 13.1069 31.278C15.1045 31.7672 17.2855 32.1443 19.5786 32.3889C20.9545 34.2744 22.3813 35.9865 23.8183 37.4847C20.4959 40.5728 17.3772 42.2646 15.2574 42.2646C14.7987 42.2544 14.4115 42.1627 14.1057 41.9894ZM38.2802 34.2234C38.7592 38.1166 38.1681 41.1435 36.7922 41.9486C36.4865 42.1321 36.089 42.2136 35.6202 42.2136C33.5105 42.2136 30.3817 40.532 27.0592 37.4643C28.4861 35.9662 29.9129 34.2642 31.2684 32.3787C33.5717 32.1341 35.7527 31.757 37.7502 31.2576C37.9846 32.287 38.1681 33.2756 38.2802 34.2234ZM42.204 27.4256C41.3275 27.8027 40.3695 28.139 39.3809 28.455C38.8 26.4574 38.0356 24.3783 37.0878 22.2483C38.0254 20.1284 38.7796 18.0595 39.3503 16.0722C40.3593 16.3881 41.3173 16.7346 42.2142 17.1117C45.822 18.6506 48.1559 20.6686 48.1559 22.2687C48.1457 23.8687 45.8118 25.8969 42.204 27.4256Z" fill="#61DAFB"/>
<path d="M25.4082 26.9262C27.9805 26.9262 30.0658 24.8409 30.0658 22.2686C30.0658 19.6963 27.9805 17.6111 25.4082 17.6111C22.8359 17.6111 20.7506 19.6963 20.7506 22.2686C20.7506 24.8409 22.8359 26.9262 25.4082 26.9262Z" fill="#61DAFB"/>
</svg>
