<svg width="35" height="35" viewBox="0 0 35 35" fill="none" xmlns="http://www.w3.org/2000/svg">
<path d="M32.0833 23.6103C32.0833 28.9186 28.9187 32.0832 23.6104 32.0832H21.8749C21.0729 32.0832 20.4166 31.4269 20.4166 30.6248V22.2103C20.4166 21.8165 20.7374 21.4811 21.1312 21.4811L23.6979 21.4373C23.902 21.4228 24.077 21.2769 24.1208 21.0728L24.6312 18.2873C24.6411 18.2242 24.6372 18.1597 24.6198 18.0982C24.6023 18.0367 24.5718 17.9797 24.5302 17.9312C24.4886 17.8827 24.437 17.8438 24.3789 17.8171C24.3208 17.7905 24.2576 17.7768 24.1937 17.7769L21.0874 17.8207C20.6791 17.8207 20.3583 17.4998 20.3437 17.1061L20.2854 13.5332C20.2854 13.2998 20.4749 13.0957 20.7229 13.0957L24.2229 13.0373C24.4708 13.0373 24.6604 12.8478 24.6604 12.5998L24.602 9.09984C24.602 8.85192 24.4124 8.66234 24.1645 8.66234L20.227 8.72067C19.6522 8.7294 19.0848 8.85147 18.5573 9.07989C18.0298 9.30831 17.5525 9.63858 17.1529 10.0518C16.7532 10.465 16.439 10.953 16.2283 11.4878C16.0176 12.0227 15.9145 12.5938 15.9249 13.1686L15.9979 17.179C16.0124 17.5873 15.6916 17.9082 15.2833 17.9228L13.5333 17.9519C13.2854 17.9519 13.0958 18.1415 13.0958 18.3894L13.1395 21.1603C13.1395 21.4082 13.3291 21.5978 13.577 21.5978L15.327 21.5686C15.7354 21.5686 16.0562 21.8894 16.0708 22.2832L16.202 30.5957C16.2166 31.4123 15.5604 32.0832 14.7437 32.0832H11.3895C6.0812 32.0832 2.91661 28.9186 2.91661 23.5957V11.3894C2.91661 6.08109 6.0812 2.9165 11.3895 2.9165H23.6104C28.9187 2.9165 32.0833 6.08109 32.0833 11.3894V23.6103Z" fill="white"/>
</svg>
