<svg width="36" height="36" viewBox="0 0 36 36" fill="none" xmlns="http://www.w3.org/2000/svg">
<path fill-rule="evenodd" clip-rule="evenodd" d="M30.75 3H7.56C7.065 3 6.585 3.255 6.315 3.675L4.005 7.125C3.84016 7.36867 3.7514 7.65581 3.75 7.95V27C3.75 27.825 4.425 28.5 5.25 28.5H8.25C9.075 28.5 9.75 29.175 9.75 30V31.5C9.75 32.325 10.425 33 11.25 33H13.44C13.935 33 14.415 32.745 14.685 32.325L16.8 29.16C17.085 28.74 17.55 28.485 18.045 28.485H24.12C24.525 28.485 24.9 28.32 25.185 28.05L31.8 21.435C31.9397 21.2953 32.0501 21.1292 32.1248 20.9463C32.1995 20.7635 32.237 20.5675 32.235 20.37V4.5C32.25 3.675 31.575 3 30.75 3ZM16.185 19.29C16.185 19.77 15.795 20.145 15.33 20.145H13.62C13.3932 20.145 13.1758 20.0549 13.0154 19.8946C12.8551 19.7342 12.765 19.5168 12.765 19.29V10.725C12.765 10.245 13.155 9.87 13.62 9.87H15.33C15.81 9.87 16.185 10.26 16.185 10.725V19.29ZM24.75 19.29C24.75 19.77 24.36 20.145 23.895 20.145H22.185C22.0727 20.145 21.9615 20.1229 21.8578 20.0799C21.7541 20.0369 21.6598 19.974 21.5804 19.8946C21.501 19.8152 21.4381 19.7209 21.3951 19.6172C21.3521 19.5135 21.33 19.4023 21.33 19.29V10.725C21.33 10.245 21.72 9.87 22.185 9.87H23.895C24.375 9.87 24.75 10.26 24.75 10.725V19.29Z" fill="white"/>
</svg>
