<svg width="659" height="73" viewBox="0 0 659 73" fill="none" xmlns="http://www.w3.org/2000/svg">
<path d="M0.912 71V2.264H21.936C32.432 2.264 40.848 5.432 47.184 11.768C53.584 18.104 56.784 26.392 56.784 36.632C56.784 46.936 53.584 55.256 47.184 61.592C40.848 67.864 32.432 71 21.936 71H0.912ZM9.744 10.712V62.552H21.936C29.936 62.552 36.24 60.28 40.848 55.736C45.456 51.128 47.76 44.76 47.76 36.632C47.76 28.568 45.456 22.232 40.848 17.624C36.24 13.016 29.936 10.712 21.936 10.712H9.744ZM208.708 64.472C213.06 64.472 216.612 62.904 219.364 59.768C222.244 56.632 223.684 52.536 223.684 47.48C223.684 42.552 222.244 38.488 219.364 35.288C216.548 32.088 212.996 30.488 208.708 30.488C204.484 30.488 200.932 32.088 198.052 35.288C195.172 38.488 193.732 42.552 193.732 47.48C193.732 52.472 195.172 56.536 198.052 59.672C200.932 62.872 204.484 64.472 208.708 64.472ZM207.268 72.536C201.124 72.536 195.844 70.104 191.428 65.24C187.076 60.312 184.9 54.392 184.9 47.48C184.9 40.568 187.076 34.648 191.428 29.72C195.844 24.856 201.124 22.424 207.268 22.424C210.724 22.424 213.86 23.16 216.676 24.632C219.556 26.104 221.764 28.056 223.3 30.488H223.684L223.3 23.96V2.264H232.132V71H223.684V64.472H223.3C221.764 66.904 219.556 68.856 216.676 70.328C213.86 71.8 210.724 72.536 207.268 72.536ZM398.225 52.664C398.225 58.68 396.017 63.512 391.601 67.16C387.121 70.744 381.681 72.536 375.281 72.536C369.585 72.536 364.561 70.872 360.209 67.544C355.857 64.216 352.849 59.672 351.185 53.912L359.633 50.456C360.209 52.504 361.009 54.36 362.033 56.024C363.057 57.688 364.241 59.128 365.585 60.344C366.993 61.496 368.529 62.424 370.193 63.128C371.857 63.768 373.617 64.088 375.473 64.088C379.505 64.088 382.801 63.064 385.361 61.016C387.921 58.904 389.201 56.12 389.201 52.664C389.201 49.784 388.145 47.32 386.033 45.272C384.049 43.288 380.337 41.368 374.897 39.512C369.393 37.528 365.969 36.184 364.625 35.48C357.329 31.768 353.681 26.296 353.681 19.064C353.681 14.008 355.697 9.688 359.729 6.10399C363.825 2.51999 368.849 0.727995 374.801 0.727995C380.049 0.727995 384.593 2.07199 388.433 4.75999C392.273 7.384 394.833 10.68 396.113 14.648L387.857 18.104C387.089 15.544 385.553 13.432 383.249 11.768C381.009 10.04 378.257 9.17599 374.993 9.17599C371.537 9.17599 368.625 10.136 366.257 12.056C363.889 13.848 362.705 16.184 362.705 19.064C362.705 21.432 363.633 23.48 365.489 25.208C367.537 26.936 371.985 28.984 378.833 31.352C385.809 33.72 390.769 36.632 393.713 40.088C396.721 43.48 398.225 47.672 398.225 52.664ZM530.958 71H522.126V23.96H530.574V31.64H530.958C531.854 29.144 533.678 27.032 536.43 25.304C539.246 23.512 541.998 22.616 544.686 22.616C547.246 22.616 549.422 23 551.214 23.768L548.526 32.312C547.438 31.864 545.71 31.64 543.342 31.64C540.014 31.64 537.102 32.984 534.606 35.672C532.174 38.36 530.958 41.496 530.958 45.08V71Z" fill="#4286F5"/>
<path d="M67.863 47.48C67.863 40.248 70.135 34.264 74.679 29.528C79.287 24.792 85.079 22.424 92.055 22.424C99.031 22.424 104.791 24.792 109.335 29.528C113.943 34.264 116.247 40.248 116.247 47.48C116.247 54.776 113.943 60.76 109.335 65.432C104.791 70.168 99.031 72.536 92.055 72.536C85.079 72.536 79.287 70.168 74.679 65.432C70.135 60.696 67.863 54.712 67.863 47.48ZM76.695 47.48C76.695 52.536 78.167 56.632 81.111 59.768C84.055 62.904 87.703 64.472 92.055 64.472C96.407 64.472 100.055 62.904 102.999 59.768C105.943 56.632 107.415 52.536 107.415 47.48C107.415 42.488 105.943 38.424 102.999 35.288C99.991 32.088 96.343 30.488 92.055 30.488C87.767 30.488 84.119 32.088 81.111 35.288C78.167 38.424 76.695 42.488 76.695 47.48ZM293.215 72.536C286.303 72.536 280.607 70.168 276.127 65.432C271.647 60.696 269.407 54.712 269.407 47.48C269.407 40.312 271.583 34.36 275.935 29.624C280.287 24.824 285.855 22.424 292.639 22.424C299.615 22.424 305.151 24.696 309.247 29.24C313.407 33.72 315.487 40.024 315.487 48.152L315.391 49.112H278.431C278.559 53.72 280.095 57.432 283.039 60.248C285.983 63.064 289.503 64.472 293.599 64.472C299.231 64.472 303.647 61.656 306.847 56.024L314.719 59.864C312.607 63.832 309.663 66.936 305.887 69.176C302.175 71.416 297.951 72.536 293.215 72.536ZM279.103 41.816H306.079C305.823 38.552 304.479 35.864 302.047 33.752C299.679 31.576 296.479 30.488 292.447 30.488C289.119 30.488 286.239 31.512 283.807 33.56C281.439 35.608 279.871 38.36 279.103 41.816ZM433.24 72.536C426.328 72.536 420.632 70.168 416.152 65.432C411.672 60.696 409.432 54.712 409.432 47.48C409.432 40.312 411.608 34.36 415.96 29.624C420.312 24.824 425.88 22.424 432.664 22.424C439.64 22.424 445.176 24.696 449.272 29.24C453.432 33.72 455.512 40.024 455.512 48.152L455.416 49.112H418.456C418.584 53.72 420.12 57.432 423.064 60.248C426.008 63.064 429.528 64.472 433.624 64.472C439.256 64.472 443.672 61.656 446.872 56.024L454.744 59.864C452.632 63.832 449.688 66.936 445.912 69.176C442.2 71.416 437.976 72.536 433.24 72.536ZM419.128 41.816H446.104C445.848 38.552 444.504 35.864 442.072 33.752C439.704 31.576 436.504 30.488 432.472 30.488C429.144 30.488 426.264 31.512 423.832 33.56C421.464 35.608 419.896 38.36 419.128 41.816ZM616.757 2.264H625.589V23.96L625.205 30.488H625.589C626.933 28.184 628.981 26.264 631.733 24.728C634.549 23.192 637.461 22.424 640.469 22.424C646.229 22.424 650.645 24.088 653.717 27.416C656.853 30.68 658.421 35.352 658.421 41.432V71H649.589V43.16C649.589 34.712 645.845 30.488 638.357 30.488C634.773 30.488 631.733 31.992 629.237 35C626.805 37.944 625.589 41.4 625.589 45.368V71H616.757V2.264Z" fill="#EA4235"/>
<path d="M126.382 47.48C126.382 40.248 128.654 34.264 133.198 29.528C137.806 24.792 143.598 22.424 150.574 22.424C157.55 22.424 163.31 24.792 167.854 29.528C172.462 34.264 174.766 40.248 174.766 47.48C174.766 54.776 172.462 60.76 167.854 65.432C163.31 70.168 157.55 72.536 150.574 72.536C143.598 72.536 137.806 70.168 133.198 65.432C128.654 60.696 126.382 54.712 126.382 47.48ZM135.214 47.48C135.214 52.536 136.686 56.632 139.63 59.768C142.574 62.904 146.222 64.472 150.574 64.472C154.926 64.472 158.574 62.904 161.518 59.768C164.462 56.632 165.934 52.536 165.934 47.48C165.934 42.488 164.462 38.424 161.518 35.288C158.51 32.088 154.862 30.488 150.574 30.488C146.286 30.488 142.638 32.088 139.63 35.288C136.686 38.424 135.214 42.488 135.214 47.48ZM474.821 56.6C474.821 58.904 475.781 60.824 477.701 62.36C479.685 63.896 481.989 64.664 484.613 64.664C488.325 64.664 491.621 63.288 494.501 60.536C497.445 57.784 498.917 54.552 498.917 50.84C496.165 48.664 492.325 47.576 487.397 47.576C483.813 47.576 480.805 48.44 478.373 50.168C476.005 51.896 474.821 54.04 474.821 56.6ZM486.245 22.424C492.773 22.424 497.925 24.184 501.701 27.704C505.477 31.16 507.365 35.928 507.365 42.008V71H498.917V64.472H498.533C494.885 69.848 490.021 72.536 483.941 72.536C478.757 72.536 474.405 71 470.885 67.928C467.429 64.856 465.701 61.016 465.701 56.408C465.701 51.544 467.525 47.672 471.173 44.792C474.885 41.912 479.813 40.472 485.957 40.472C491.205 40.472 495.525 41.432 498.917 43.352V41.336C498.917 38.264 497.701 35.672 495.269 33.56C492.837 31.384 489.989 30.296 486.725 30.296C481.797 30.296 477.893 32.376 475.013 36.536L467.237 31.64C471.525 25.496 477.861 22.424 486.245 22.424Z" fill="#FABC06"/>
<path d="M256.533 2.264V71H247.701V2.264H256.533ZM583.305 72.536C576.329 72.536 570.537 70.168 565.929 65.432C561.385 60.568 559.113 54.584 559.113 47.48C559.113 40.248 561.385 34.264 565.929 29.528C570.537 24.792 576.329 22.424 583.305 22.424C588.105 22.424 592.297 23.64 595.881 26.072C599.465 28.44 602.153 31.736 603.945 35.96L595.881 39.32C593.385 33.432 589.001 30.488 582.729 30.488C578.697 30.488 575.209 32.12 572.265 35.384C569.385 38.648 567.945 42.68 567.945 47.48C567.945 52.28 569.385 56.312 572.265 59.576C575.209 62.84 578.697 64.472 582.729 64.472C589.193 64.472 593.737 61.528 596.361 55.64L604.233 59C602.505 63.224 599.785 66.552 596.073 68.984C592.425 71.352 588.169 72.536 583.305 72.536Z" fill="#34A853"/>
</svg>
