<svg width="28" height="28" viewBox="0 0 28 28" fill="none" xmlns="http://www.w3.org/2000/svg">
<path d="M11.6596 0C5.234 0 0 5.234 0 11.6596C0 18.0852 5.234 23.3193 11.6596 23.3193C14.4539 23.3193 17.02 22.327 19.0312 20.6799L25.9928 27.6415C26.1002 27.7534 26.2289 27.8428 26.3713 27.9043C26.5137 27.9658 26.6669 27.9984 26.8221 27.9999C26.9772 28.0015 27.1311 27.9721 27.2747 27.9135C27.4183 27.8549 27.5488 27.7682 27.6585 27.6585C27.7682 27.5488 27.8549 27.4183 27.9135 27.2747C27.9721 27.1311 28.0015 26.9772 27.9999 26.8221C27.9984 26.6669 27.9658 26.5137 27.9043 26.3713C27.8428 26.2289 27.7534 26.1002 27.6415 25.9928L20.6799 19.0312C22.327 17.02 23.3193 14.4539 23.3193 11.6596C23.3193 5.234 18.0852 0 11.6596 0ZM11.6596 2.33193C16.825 2.33193 20.9873 6.49427 20.9873 11.6596C20.9873 16.825 16.825 20.9873 11.6596 20.9873C6.49427 20.9873 2.33193 16.825 2.33193 11.6596C2.33193 6.49427 6.49427 2.33193 11.6596 2.33193Z" fill="#9AA0A6"/>
</svg>
